<svg width="1179" height="300" viewBox="0 0 1179 300" fill="none" xmlns="http://www.w3.org/2000/svg">
<path d="M200 50C200 77.6142 222.386 100 250 100C277.614 100 300 122.386 300 150V236C300 271.346 271.346 300 236 300H64C28.6538 300 0 271.346 0 236V64C0 28.6538 28.6538 0 64 0H150C177.614 0 200 22.3858 200 50Z" fill="#34405C"/>
<path d="M477.199 15.679V134.952H450.176L407.08 72.287H406.381V134.952H374V15.679H401.489L443.886 78.1108H444.818V15.679H477.199Z" fill="#34405C"/>
<path d="M608.061 75.3154C608.061 88.5938 605.479 99.795 600.315 108.919C595.152 118.004 588.182 124.896 579.408 129.594C570.633 134.253 560.849 136.582 550.055 136.582C539.184 136.582 529.361 134.233 520.587 129.536C511.851 124.799 504.901 117.888 499.737 108.803C494.612 99.6786 492.05 88.5161 492.05 75.3154C492.05 62.037 494.612 50.8552 499.737 41.7699C504.901 32.6459 511.851 25.7543 520.587 21.0952C529.361 16.3973 539.184 14.0483 550.055 14.0483C560.849 14.0483 570.633 16.3973 579.408 21.0952C588.182 25.7543 595.152 32.6459 600.315 41.7699C605.479 50.8552 608.061 62.037 608.061 75.3154ZM574.749 75.3154C574.749 68.1714 573.797 62.1535 571.895 57.2614C570.031 52.3305 567.255 48.6033 563.567 46.0796C559.917 43.5171 555.413 42.2358 550.055 42.2358C544.697 42.2358 540.174 43.5171 536.486 46.0796C532.836 48.6033 530.06 52.3305 528.158 57.2614C526.294 62.1535 525.362 68.1714 525.362 75.3154C525.362 82.4593 526.294 88.4967 528.158 93.4276C530.06 98.3196 532.836 102.047 536.486 104.609C540.174 107.133 544.697 108.395 550.055 108.395C555.413 108.395 559.917 107.133 563.567 104.609C567.255 102.047 570.031 98.3196 571.895 93.4276C573.797 88.4967 574.749 82.4593 574.749 75.3154Z" fill="#34405C"/>
<path d="M648.129 15.679L672.589 99.7756H673.521L697.982 15.679H734.555L695.186 134.952H650.925L611.555 15.679H648.129Z" fill="#34405C"/>
<path d="M778.424 15.679V134.952H746.043V15.679H778.424Z" fill="#34405C"/>
<path d="M374 285.952V166.679H406.381V214.901H408.011L443.886 166.679H481.625L441.324 219.793L482.557 285.952H443.886L417.097 241.224L406.381 255.202V285.952H374Z" fill="#1A56DB"/>
<path d="M523.848 166.679L548.308 250.776H549.24L573.7 166.679H610.274L570.905 285.952H526.643L487.274 166.679H523.848Z" fill="#1A56DB"/>
<path d="M633.206 285.952H598.262L637.632 166.679H681.893L721.262 285.952H686.319L660.228 199.526H659.297L633.206 285.952ZM626.683 238.895H692.376V263.122H626.683V238.895Z" fill="#1A56DB"/>
<path d="M778.642 285.952H732.75V166.679H778.176C790.445 166.679 801.045 169.067 809.974 173.842C818.943 178.579 825.854 185.412 830.707 194.342C835.599 203.233 838.045 213.891 838.045 226.315C838.045 238.74 835.619 249.417 830.766 258.347C825.912 267.238 819.04 274.071 810.149 278.847C801.258 283.583 790.756 285.952 778.642 285.952ZM765.131 258.463H777.477C783.379 258.463 788.407 257.512 792.561 255.609C796.754 253.707 799.938 250.426 802.112 245.767C804.325 241.108 805.432 234.624 805.432 226.315C805.432 218.007 804.306 211.523 802.054 206.864C799.841 202.205 796.58 198.924 792.27 197.021C787.999 195.119 782.758 194.168 776.545 194.168H765.131V258.463Z" fill="#1A56DB"/>
<path d="M853.027 285.952V166.679H904.51C913.363 166.679 921.108 168.29 927.747 171.513C934.387 174.735 939.551 179.375 943.239 185.432C946.927 191.489 948.772 198.749 948.772 207.213C948.772 215.755 946.869 222.957 943.064 228.82C939.298 234.682 933.998 239.108 927.165 242.098C920.371 245.088 912.431 246.582 903.346 246.582H872.596V221.423H896.823C900.628 221.423 903.87 220.957 906.549 220.026C909.266 219.055 911.344 217.521 912.78 215.425C914.256 213.328 914.993 210.591 914.993 207.213C914.993 203.796 914.256 201.02 912.78 198.885C911.344 196.711 909.266 195.119 906.549 194.109C903.87 193.061 900.628 192.537 896.823 192.537H885.408V285.952H853.027ZM922.914 231.207L952.732 285.952H917.556L888.436 231.207H922.914Z" fill="#1A56DB"/>
<path d="M993.557 285.952H958.614L997.983 166.679H1042.24L1081.61 285.952H1046.67L1020.58 199.526H1019.65L993.557 285.952ZM987.034 238.895H1052.73V263.122H987.034V238.895Z" fill="#1A56DB"/>
<path d="M1074.79 192.77V166.679H1178.45V192.77H1142.58V285.952H1110.66V192.77H1074.79Z" fill="#1A56DB"/>
<rect x="214" width="86" height="86" rx="43" fill="#1A56DB"/>
</svg>
